<svg xmlns="http://www.w3.org/2000/svg" fill="none" viewBox="-0.75 -0.75 24 24" id="Help-Chat-1--Streamline-Plump" height="24" width="24">
  <desc>
    Help Chat 1 Streamline Icon: https://streamlinehq.com
  </desc>
  <g id="help-chat-1--bubble-help-mark-message-query-question-speech-square">
    <path id="Union" stroke="#000000" stroke-linecap="round" stroke-linejoin="round" d="M3.85640625 17.31609375c-1.1925000000000001 -0.07968750000000001 -2.128125 -0.9632812500000001 -2.23546875 -2.15390625 -0.11249999999999999 -1.24921875 -0.2203125 -3.1199999999999997 -0.2203125 -5.6971875s0.1078125 -4.4484375 0.2203125 -5.6971875c0.10734375 -1.190625 1.04296875 -2.0746875 2.2359375 -2.15390625C5.36953125 1.513125 7.788281249999999 1.40625 11.25 1.40625c3.46125 0 5.88 0.106875 7.39359375 0.20765625000000001 1.19296875 0.07968750000000001 2.128125 0.9632812500000001 2.2359375 2.15390625 0.11203125 1.24921875 0.21984374999999998 3.1199999999999997 0.21984374999999998 5.6971875s-0.1078125 4.4484375 -0.2203125 5.6971875c-0.106875 1.190625 -1.0425 2.0746875 -2.23546875 2.15390625 -1.3265625 0.08859375 -3.34828125 0.18140625 -6.1584375 0.20296875l-3.70640625 3.3c-0.6046875 0.5376562500000001 -1.5609375 0.10875 -1.5609375 -0.70078125v-2.6484375a88.97671875 88.97671875 0 0 1 -3.361875 -0.15375Z" stroke-width="1.5"></path>
    <path id="Ellipse 68" stroke="#000000" stroke-linecap="round" stroke-linejoin="round" d="M9.406875000000001 13.59375a1.640625 1.640625 0 1 0 3.28125 0 1.640625 1.640625 0 1 0 -3.28125 0" stroke-width="1.5"></path>
    <path id="Union_2" stroke="#000000" stroke-linecap="round" stroke-linejoin="round" d="M12.25171875 3.984375c-1.86234375 0 -3.4396875000000002 1.10625 -3.75 2.34375 -0.2784375 1.1128125 0.37125 2.07375 1.4521875 2.0521875 0.2915625 -0.005625 0.56203125 -0.1359375 0.8128124999999999 -0.2840625 0.38671875 -0.2296875 0.99984375 -0.5845312500000001 1.485 -0.8306250000000001 -0.9534374999999999 0.52734375 -2.65734375 1.3110937500000002 -2.65734375 2.4689062500000003l-0.00140625 1.04484375a1.171875 1.171875 0 0 0 1.171875 1.17375h0.5175000000000001c0.4021875 0 0.75703125 -0.20296875 0.9679687499999999 -0.5118750000000001 0.24375000000000002 -0.35625 0.4425 -0.7846875 0.8189062500000001 -0.99609375 1.4212500000000001 -0.79828125 2.4642187499999997 -1.599375 2.4642187499999997 -3.17953125 0 -1.640625 -0.99 -3.28125 -3.28125 -3.28125Z" stroke-width="1.5"></path>
  </g>
</svg>