<?xml version="1.0" encoding="UTF-8" standalone="no"?>
<svg width="346px" height="110px" viewBox="0 0 346 110" version="1.1" xmlns="http://www.w3.org/2000/svg" xmlns:xlink="http://www.w3.org/1999/xlink">
    <!-- Generator: Sketch 3.7.2 (28276) - http://www.bohemiancoding.com/sketch -->
    <title>wordpress_logo</title>
    <desc>Created with Sketch.</desc>
    <defs></defs>
    <g id="FINAL" stroke="none" stroke-width="1" fill="none" fill-rule="evenodd">
        <g id="wordpress_logo" transform="translate(22.000000, 16.000000)">
            <text id="東京大学図書館情報学研究室" font-family="HiraMaruPro-W4, Hiragino Maru Gothic Pro" font-size="13.2038835" font-weight="normal" letter-spacing="1.72500002" fill="#343538">
                <tspan x="106.947253" y="75.4545455">東京大学図書館情報学研究室</tspan>
            </text>
            <g id="moji" transform="translate(111.757282, 2.666667)">
                <path d="M175.043374,11.0126786 L151.571154,11.0126786 C150.474781,11.0126786 149.608909,11.4344154 148.973512,12.2779018 C148.338114,13.1213881 148.02042,14.1096372 148.02042,15.2426786 C148.02042,16.3505413 148.325655,17.2947282 148.936135,18.0752679 C149.546616,18.8558075 150.424946,19.2460714 151.571154,19.2460714 L165.886218,19.2460714 C169.748439,19.2460714 172.800794,20.706414 175.043374,23.6271429 C177.061696,26.2457274 178.070842,29.4811415 178.070842,33.3334821 C178.070842,37.1606441 177.061696,40.3960582 175.043374,43.0398214 C172.800794,45.9605503 169.748439,47.4208929 165.886218,47.4208929 L140.657319,47.4208929 L140.657319,37.60125 L164.241668,37.60125 C165.288205,37.60125 166.110472,37.166924 166.708493,36.2982589 C167.306515,35.4295939 167.605521,34.4287557 167.605521,33.2957143 C167.605521,32.1626729 167.318973,31.1996022 166.74587,30.4064732 C166.172766,29.6133442 165.33804,29.2167857 164.241668,29.2167857 L149.889227,29.2167857 C146.002088,29.2167857 142.924816,27.7690323 140.657319,24.8734821 C138.614079,22.2800763 137.592475,19.0698406 137.592475,15.2426786 C137.592475,11.465874 138.614079,8.26822738 140.657319,5.64964286 C142.949734,2.72891397 146.027006,1.26857143 149.889227,1.26857143 L175.043374,1.26857143 L175.043374,11.0126786 Z" id="S" fill="#343538"></path>
                <g id="i" transform="translate(121.421853, 0.268571)">
                    <polygon id="I" fill="#343538" points="11.1547035 47.3117857 1.06314374 47.3117857 1.06314374 19.5314286 11.1547035 19.5314286"></polygon>
                    <ellipse id="Oval-3" fill="#248CC8" cx="5.98018354" cy="6.04285714" rx="5.98018354" ry="6.04285714"></ellipse>
                </g>
                <path d="M116.65951,47.3117857 L98.4573264,47.3117857 C92.701371,47.3117857 88.1415266,45.8514432 84.7776566,42.9307143 C82.1363956,40.6394528 80.267607,37.5173412 79.1712345,33.5642857 C78.4486254,30.9708799 78.0873263,28.1509081 78.0873263,25.1042857 C78.0873263,24.3992822 78.0935555,23.9020104 78.1060143,23.6124554 C78.1184731,23.3229003 78.1496196,23.0648226 78.1994547,22.8382143 L78.1994547,1.15946429 L88.2910144,1.15946429 L88.2910144,22.8382143 C88.2910144,26.7409124 89.1008228,30.0266831 90.720464,32.695625 C92.5892807,35.7674261 95.168209,37.3033036 98.4573264,37.3033036 L116.65951,37.3033036 L116.65951,47.3117857 Z" id="L" fill="#343538"></path>
                <polygon id="T" fill="#343538" points="73.8762803 10.9035714 63.5604638 10.9035714 63.5604638 47.3117857 53.5810325 47.3117857 53.5810325 10.9035714 43.302592 10.9035714 43.302592 1.15946429 73.8762803 1.15946429"></polygon>
                <path d="M38.7247623,30.7694643 C38.7247623,36.1073481 36.6815534,40.3624841 32.5950742,43.535 C28.9072759,46.4053715 24.397266,47.8405357 19.064909,47.8405357 C13.8820573,47.8405357 9.52155044,46.4305498 5.98325749,43.6105357 C2.02136609,40.4631985 0.0404501004,36.1828842 0.0404501004,30.7694643 L0.0404501004,1.15946429 L9.94512908,1.15946429 L9.94512908,29.1076786 C9.94512908,31.5248335 10.9667336,33.4635641 13.0099731,34.9239286 C14.8787898,36.2583995 17.1337948,36.925625 19.7750558,36.925625 C22.3166465,36.925625 24.4595241,36.2835778 26.2037531,34.9994643 C28.1473224,33.5642785 29.1190925,31.6003696 29.1190925,29.1076786 L29.1190925,1.15946429 L38.7247623,1.15946429 L38.7247623,30.7694643 Z" id="U" fill="#343538"></path>
            </g>
            <g id="books" fill="#343538">
                <path d="M0.0866368291,34.1547983 L43.0956577,58.4881315 L43.0868947,63.5089544 L3.35869952,41.031823 L0.173167933,43.5158245 L43.0794211,67.7910146 L43.0711133,72.5509953 L3.46723095,50.1441967 L0.17073812,52.5654194 L42.9649806,76.7772368 L43.0640427,76.602145 L43.0637617,76.7631829 L85.8325935,52.4681567 L85.8820024,24.1590067 L85.7844691,24.214412 L43.1501486,0 L0.455154246,24.248872 L43.1131309,48.4767196 L43.1031313,54.2060713 L3.2363478,31.6505304 L0.0866368291,34.1547983 Z" id="Combined-Shape"></path>
            </g>
        </g>
    </g>
</svg>